<?xml version="1.0" encoding="utf-8"?>
<!-- Generator: Adobe Illustrator 23.0.5, SVG Export Plug-In . SVG Version: 6.00 Build 0)  -->
<svg version="1.1" id="Layer_1" xmlns="http://www.w3.org/2000/svg" xmlns:xlink="http://www.w3.org/1999/xlink" x="0px" y="0px"
	 viewBox="0 0 500 500" style="enable-background:new 0 0 500 500;" xml:space="preserve">
<style type="text/css">
	.st0{fill:url(#SVGID_1_);}
	.st1{fill:url(#SVGID_2_);}
	.st2{fill:url(#SVGID_3_);}
	.st3{fill:#F49600;}
	.st4{fill:url(#SVGID_4_);}
	.st5{fill:url(#SVGID_5_);}
	.st6{fill:url(#SVGID_6_);}
	.st7{fill:url(#SVGID_7_);}
	.st8{fill:url(#SVGID_8_);}
	.st9{fill:url(#SVGID_9_);}
	.st10{fill:url(#SVGID_10_);}
</style>
<g>
	<g>
		<g>
			<linearGradient id="SVGID_1_" gradientUnits="userSpaceOnUse" x1="144.9897" y1="284.5814" x2="216.8532" y2="284.5814">
				<stop  offset="0" style="stop-color:#860005"/>
				<stop  offset="0.1649" style="stop-color:#A20009"/>
				<stop  offset="0.3818" style="stop-color:#C1000D"/>
				<stop  offset="0.5028" style="stop-color:#CD000E"/>
				<stop  offset="0.584" style="stop-color:#C6000D"/>
				<stop  offset="0.7032" style="stop-color:#B2000B"/>
				<stop  offset="0.8456" style="stop-color:#920008"/>
				<stop  offset="1" style="stop-color:#670004"/>
			</linearGradient>
			<path class="st0" d="M216.85,272.34c0-11.56-16.09-20.94-35.93-20.94c-19.84,0-35.93,9.37-35.93,20.94
				c0,9.01,9.76,16.68,23.45,19.64l0,12.15c0,0.91,0.63,1.76,1.53,1.91c1.15,0.19,2.15-0.7,2.15-1.81v-9.48
				c0-1.15,1.04-2.03,2.21-1.82c0.92,0.17,1.54,1.03,1.54,1.96l0,18.6c0,0.91,0.63,1.76,1.53,1.91c1.15,0.19,2.15-0.7,2.15-1.81
				v-18.57c0-0.95,0.77-1.73,1.73-1.74c0,0,0,0,0.01,0c0.03,0,0.12,0,0.25,0c0.97-0.01,1.77,0.77,1.77,1.74v6.77
				c0,0.91,0.63,1.76,1.53,1.91c1.15,0.19,2.15-0.7,2.15-1.81v-7.26c0-0.93,0.69-1.72,1.62-1.83l0.07-0.01
				c1.1-0.14,2.07,0.71,2.07,1.82v21.22c0,0.91,0.63,1.76,1.53,1.91c1.15,0.19,2.15-0.7,2.15-1.81v-24.17
				C207.55,288.65,216.85,281.13,216.85,272.34z"/>
		</g>
		<g>
			<g>
				<linearGradient id="SVGID_2_" gradientUnits="userSpaceOnUse" x1="127.2675" y1="160.1592" x2="373.7861" y2="160.1592">
					<stop  offset="0" style="stop-color:#860005"/>
					<stop  offset="0.1649" style="stop-color:#A20009"/>
					<stop  offset="0.3818" style="stop-color:#C1000D"/>
					<stop  offset="0.5028" style="stop-color:#CD000E"/>
					<stop  offset="0.584" style="stop-color:#C6000D"/>
					<stop  offset="0.7032" style="stop-color:#B2000B"/>
					<stop  offset="0.8456" style="stop-color:#920008"/>
					<stop  offset="1" style="stop-color:#670004"/>
				</linearGradient>
				<path class="st1" d="M250.53,283.3c-3.23,0-5.86-2.62-5.86-5.85c0-3.23,2.62-5.85,5.86-5.85c61.51,0,111.55-49.99,111.55-111.44
					S312.04,48.72,250.53,48.72S138.98,98.71,138.98,160.16c0,20.59,5.66,40.7,16.38,58.16c1.69,2.75,0.83,6.36-1.93,8.04
					c-2.76,1.69-6.36,0.82-8.05-1.93c-11.84-19.3-18.1-41.53-18.1-64.27c0-67.9,55.29-123.14,123.26-123.14
					c67.97,0,123.26,55.24,123.26,123.14S318.49,283.3,250.53,283.3z"/>
			</g>
		</g>
		<g>
			<linearGradient id="SVGID_3_" gradientUnits="userSpaceOnUse" x1="156.2061" y1="167.729" x2="347.8159" y2="167.729">
				<stop  offset="0" style="stop-color:#860005"/>
				<stop  offset="0.1649" style="stop-color:#A20009"/>
				<stop  offset="0.3818" style="stop-color:#C1000D"/>
				<stop  offset="0.5028" style="stop-color:#CD000E"/>
				<stop  offset="0.584" style="stop-color:#C6000D"/>
				<stop  offset="0.7032" style="stop-color:#B2000B"/>
				<stop  offset="0.8456" style="stop-color:#920008"/>
				<stop  offset="1" style="stop-color:#670004"/>
			</linearGradient>
			<path class="st2" d="M252.01,65.01c-52.91,0-95.8,42.85-95.8,95.71c0,45.56,31.87,83.65,74.54,93.32
				c4.65-5.44,7.92-11.59,7.46-17.27c-0.57-6.95-5.84-11.1-11.96-15.9c-4.01-3.16-8.16-6.42-11.26-10.77
				c-4.92-6.92-8.48-18.05,2.54-31.76c4.85-6.04,12.14-13.3,20.59-15.83c-2.17-3.83-5.14-7.21-8.78-9.87l-0.48-0.35
				c-0.16-0.12-0.3-0.24-0.46-0.36l56.87,23.61l-10.59,10.48l-32.94-13.33c-0.08-0.47-0.17-0.93-0.27-1.39
				c-5.05,1.25-10.9,5.76-16.64,12.9c-7.97,9.92-5.08,16.44-2.21,20.48c2.31,3.25,5.76,5.96,9.41,8.83
				c6.84,5.38,15.19,11.45,15.5,22.49c0.51,18.24-14.43,28.33-18.66,34.42c3.57,0.4,19.45-14,23.12-14
				c52.91,0,95.8-42.85,95.8-95.71C347.82,107.87,304.92,65.01,252.01,65.01z M266.95,193.69c-8.4,8.31-22.69,3.18-23.87-8.57
				l-0.75-7.54l29.02,11.75L266.95,193.69z M289,171.85l-0.4,0.39l-59.15-24.56c-5.83-2.42-9.11-8.75-7.52-14.85
				c0.01-0.04,0.02-0.08,0.03-0.13v0c0-5.2,5.23-8.79,10.09-6.91l51.45,19.82C294.32,149.79,297.23,163.7,289,171.85z"/>
		</g>
	</g>
	<g>
		<path class="st3" d="M44.1,438.91h2.86l3.47,19.16h0.06l5.82-19.16h2.63l5.85,19.16h0.08l3.47-19.16h2.86l-4.39,23.56h-3.36
			l-5.8-18.91H57.6l-5.76,18.91h-3.4L44.1,438.91z"/>
		<path class="st3" d="M90.61,438.91h14.14v2.63H93.37v7.54h10.45v2.48H93.37v8.28h11.38v2.63H90.61V438.91z"/>
		<path class="st3" d="M148.52,454.66l2.76-0.47c0.25,2.09,0.95,3.64,2.08,4.65c1.13,1.01,2.76,1.51,4.89,1.51
			c1.64,0,2.95-0.35,3.93-1.04c0.99-0.7,1.48-1.62,1.48-2.75c0-1.2-0.47-2.19-1.41-2.96c-0.94-0.77-2.63-1.53-5.09-2.3
			c-2.86-0.95-4.83-1.9-5.91-2.84c-1.08-0.94-1.61-2.21-1.61-3.81c0-1.82,0.71-3.31,2.12-4.48c1.41-1.17,3.22-1.75,5.43-1.75
			c2.25,0,4.13,0.61,5.66,1.84c1.56,1.26,2.52,2.93,2.89,5.01l-2.73,0.57c-0.35-1.56-1.03-2.75-2.04-3.57
			c-1.01-0.83-2.28-1.24-3.81-1.24c-1.44,0-2.59,0.33-3.45,0.98c-0.87,0.66-1.3,1.54-1.3,2.63c0,0.9,0.4,1.64,1.21,2.24
			c0.81,0.59,2.29,1.22,4.45,1.89c3.1,1.01,5.27,2.09,6.51,3.24s1.85,2.66,1.85,4.52c0,1.92-0.76,3.48-2.27,4.67
			c-1.51,1.2-3.49,1.79-5.94,1.79c-2.89,0-5.16-0.71-6.83-2.14C149.73,459.42,148.77,457.36,148.52,454.66z"/>
		<path class="st3" d="M186.33,438.91h2.76v10.24h10.64v-10.24h2.76v23.56h-2.76v-10.91h-10.64v10.91h-2.76V438.91z"/>
		<path class="st3" d="M225.48,459.58c-1.83-2.27-2.75-5.23-2.75-8.89c0-3.66,0.92-6.62,2.75-8.88c1.83-2.26,4.23-3.39,7.19-3.39
			s5.36,1.13,7.19,3.39c1.83,2.26,2.75,5.22,2.75,8.88c0,3.66-0.91,6.62-2.75,8.89c-1.83,2.27-4.23,3.4-7.19,3.4
			S227.31,461.84,225.48,459.58z M237.89,457.74c1.28-1.74,1.91-4.09,1.91-7.06s-0.64-5.32-1.91-7.06c-1.28-1.74-3.02-2.6-5.22-2.6
			s-3.94,0.87-5.22,2.6c-1.28,1.74-1.91,4.09-1.91,7.06s0.64,5.32,1.91,7.06s3.02,2.6,5.22,2.6S236.61,459.48,237.89,457.74z"/>
		<path class="st3" d="M260.62,438.91h2.86l3.47,19.16h0.06l5.82-19.16h2.63l5.85,19.16h0.08l3.47-19.16h2.86l-4.39,23.56h-3.36
			l-5.8-18.91h-0.07l-5.76,18.91h-3.4L260.62,438.91z"/>
		<path class="st3" d="M332.04,438.91h2.76v20.94h10.64v2.63h-13.4V438.91z"/>
		<path class="st3" d="M365.34,438.91h2.76v23.56h-2.76V438.91z"/>
		<path class="st3" d="M386.99,438.91h2.93l7.01,19.86h0.06l7.06-19.86h2.9l-8.49,23.56h-2.98L386.99,438.91z"/>
		<path class="st3" d="M425.81,438.91h14.14v2.63h-11.38v7.54h10.45v2.48h-10.45v8.28h11.38v2.63h-14.14V438.91z"/>
	</g>
	<g>
		<linearGradient id="SVGID_4_" gradientUnits="userSpaceOnUse" x1="-142.9275" y1="424.5" x2="409.4612" y2="266.6747">
			<stop  offset="0" style="stop-color:#860005"/>
			<stop  offset="0.1649" style="stop-color:#A20009"/>
			<stop  offset="0.3818" style="stop-color:#C1000D"/>
			<stop  offset="0.5028" style="stop-color:#CD000E"/>
			<stop  offset="0.584" style="stop-color:#C6000D"/>
			<stop  offset="0.7032" style="stop-color:#B2000B"/>
			<stop  offset="0.8456" style="stop-color:#920008"/>
			<stop  offset="1" style="stop-color:#670004"/>
		</linearGradient>
		<path class="st4" d="M0,387.65l15.63-3.37c1.02,5.61,2.77,9.6,5.27,11.96c2.49,2.37,6.23,3.55,11.21,3.55
			c3.72,0,6.59-0.65,8.6-1.95c2.02-1.3,3.03-3.12,3.03-5.47c0-2.63-1.11-4.76-3.31-6.41c-2.21-1.65-6.49-3.56-12.85-5.73
			c-8.7-2.87-14.91-6.12-18.63-9.73c-3.68-3.57-5.53-8.13-5.53-13.67c0-6.31,2.38-11.44,7.16-15.38c4.77-3.95,10.91-5.91,18.42-5.91
			c7.4,0,13.74,2.04,19,6.13c5.27,4.08,8.49,9.44,9.69,16.06l-15.53,3.31c-1.02-3.82-2.6-6.64-4.76-8.47s-4.96-2.73-8.4-2.73
			c-2.98,0-5.37,0.62-7.16,1.86c-1.79,1.24-2.68,2.92-2.68,5.02c0,1.93,1.01,3.58,3.02,4.95c2.02,1.37,5.83,3,11.45,4.89
			c9.44,3.22,16.12,6.8,20.05,10.72c4.03,4.03,6.05,9.06,6.05,15.09c0,6.49-2.58,11.74-7.74,15.75c-5.16,4.01-11.86,6.02-20.11,6.02
			c-9.02,0-16.26-2.26-21.71-6.78C4.73,402.84,1.33,396.27,0,387.65z"/>
		<linearGradient id="SVGID_5_" gradientUnits="userSpaceOnUse" x1="-137.9179" y1="442.0336" x2="414.4708" y2="284.2082">
			<stop  offset="0" style="stop-color:#860005"/>
			<stop  offset="0.1649" style="stop-color:#A20009"/>
			<stop  offset="0.3818" style="stop-color:#C1000D"/>
			<stop  offset="0.5028" style="stop-color:#CD000E"/>
			<stop  offset="0.584" style="stop-color:#C6000D"/>
			<stop  offset="0.7032" style="stop-color:#B2000B"/>
			<stop  offset="0.8456" style="stop-color:#920008"/>
			<stop  offset="1" style="stop-color:#670004"/>
		</linearGradient>
		<path class="st5" d="M69.16,337.12H85.1v29.55h24.48v-29.55h15.95v75.4h-15.95v-31.34H85.1v31.34H69.16V337.12z"/>
		<linearGradient id="SVGID_6_" gradientUnits="userSpaceOnUse" x1="-132.4678" y1="461.1089" x2="419.921" y2="303.2836">
			<stop  offset="0" style="stop-color:#860005"/>
			<stop  offset="0.1649" style="stop-color:#A20009"/>
			<stop  offset="0.3818" style="stop-color:#C1000D"/>
			<stop  offset="0.5028" style="stop-color:#CD000E"/>
			<stop  offset="0.584" style="stop-color:#C6000D"/>
			<stop  offset="0.7032" style="stop-color:#B2000B"/>
			<stop  offset="0.8456" style="stop-color:#920008"/>
			<stop  offset="1" style="stop-color:#670004"/>
		</linearGradient>
		<path class="st6" d="M136.16,374.82c0-11.85,3.03-21.36,9.1-28.53c6.07-7.17,14.14-10.75,24.21-10.75
			c10.04,0,18.12,3.59,24.24,10.75c6.12,7.17,9.18,16.68,9.18,28.53s-3.06,21.36-9.18,28.55c-6.12,7.19-14.2,10.78-24.24,10.78
			c-10.07,0-18.14-3.59-24.21-10.76C139.19,396.23,136.16,386.7,136.16,374.82z M186.95,374.82c0-7.71-1.56-13.77-4.68-18.17
			c-3.13-4.4-7.39-6.6-12.79-6.6c-5.4,0-9.65,2.19-12.74,6.57s-4.63,10.44-4.63,18.19c0,7.74,1.54,13.81,4.63,18.19
			s7.34,6.57,12.74,6.57c5.44,0,9.71-2.19,12.82-6.57C185.39,388.63,186.95,382.56,186.95,374.82z"/>
		<linearGradient id="SVGID_7_" gradientUnits="userSpaceOnUse" x1="-126.6347" y1="481.525" x2="425.7541" y2="323.6996">
			<stop  offset="0" style="stop-color:#860005"/>
			<stop  offset="0.1649" style="stop-color:#A20009"/>
			<stop  offset="0.3818" style="stop-color:#C1000D"/>
			<stop  offset="0.5028" style="stop-color:#CD000E"/>
			<stop  offset="0.584" style="stop-color:#C6000D"/>
			<stop  offset="0.7032" style="stop-color:#B2000B"/>
			<stop  offset="0.8456" style="stop-color:#920008"/>
			<stop  offset="1" style="stop-color:#670004"/>
		</linearGradient>
		<path class="st7" d="M212.31,337.12h14.16l8.77,49.69h0.18l11.97-49.69h12.74l11.97,49.69h0.18l8.82-49.69h14.11l-13.84,75.4
			h-14.71l-12.79-51.69h-0.18l-12.84,51.69h-14.57L212.31,337.12z"/>
		<linearGradient id="SVGID_8_" gradientUnits="userSpaceOnUse" x1="-119.7605" y1="505.5844" x2="432.6282" y2="347.759">
			<stop  offset="0" style="stop-color:#860005"/>
			<stop  offset="0.1649" style="stop-color:#A20009"/>
			<stop  offset="0.3818" style="stop-color:#C1000D"/>
			<stop  offset="0.5028" style="stop-color:#CD000E"/>
			<stop  offset="0.584" style="stop-color:#C6000D"/>
			<stop  offset="0.7032" style="stop-color:#B2000B"/>
			<stop  offset="0.8456" style="stop-color:#920008"/>
			<stop  offset="1" style="stop-color:#670004"/>
		</linearGradient>
		<path class="st8" d="M304.64,374.82c0-11.85,3.03-21.36,9.1-28.53c6.07-7.17,14.14-10.75,24.21-10.75c7.9,0,14.58,2.39,20.05,7.18
			c5.48,4.78,8.7,11,9.69,18.64l-15.48,2.47c-0.8-4.31-2.47-7.68-5-10.12c-2.53-2.44-5.61-3.65-9.26-3.65
			c-5.44,0-9.69,2.19-12.76,6.57c-3.07,4.38-4.6,10.44-4.6,18.19c0,7.74,1.55,13.81,4.66,18.19c3.11,4.38,7.38,6.57,12.82,6.57
			c4.46,0,7.93-1.23,10.42-3.68c2.49-2.45,3.77-5.93,3.84-10.41h-13.47v-12.83h28.53v10.26c0,9.36-2.69,16.9-8.08,22.63
			c-5.39,5.73-12.5,8.6-21.34,8.6c-10.07,0-18.14-3.58-24.21-10.73C307.67,396.27,304.64,386.74,304.64,374.82z"/>
		<linearGradient id="SVGID_9_" gradientUnits="userSpaceOnUse" x1="-114.881" y1="522.6627" x2="437.5077" y2="364.8373">
			<stop  offset="0" style="stop-color:#860005"/>
			<stop  offset="0.1649" style="stop-color:#A20009"/>
			<stop  offset="0.3818" style="stop-color:#C1000D"/>
			<stop  offset="0.5028" style="stop-color:#CD000E"/>
			<stop  offset="0.584" style="stop-color:#C6000D"/>
			<stop  offset="0.7032" style="stop-color:#B2000B"/>
			<stop  offset="0.8456" style="stop-color:#920008"/>
			<stop  offset="1" style="stop-color:#670004"/>
		</linearGradient>
		<path class="st9" d="M378.21,337.12h48.63v14.67h-32.68v15.3h29.79v13.99h-29.79v16.77h32.79v14.67h-48.73V337.12z"/>
		<linearGradient id="SVGID_10_" gradientUnits="userSpaceOnUse" x1="-110.0445" y1="539.5903" x2="442.3442" y2="381.765">
			<stop  offset="0" style="stop-color:#860005"/>
			<stop  offset="0.1649" style="stop-color:#A20009"/>
			<stop  offset="0.3818" style="stop-color:#C1000D"/>
			<stop  offset="0.5028" style="stop-color:#CD000E"/>
			<stop  offset="0.584" style="stop-color:#C6000D"/>
			<stop  offset="0.7032" style="stop-color:#B2000B"/>
			<stop  offset="0.8456" style="stop-color:#920008"/>
			<stop  offset="1" style="stop-color:#670004"/>
		</linearGradient>
		<path class="st10" d="M433.27,374.82c0-11.85,3.03-21.36,9.1-28.53c6.07-7.17,14.14-10.75,24.21-10.75
			c10.04,0,18.12,3.59,24.24,10.75c6.12,7.17,9.18,16.68,9.18,28.53s-3.06,21.36-9.18,28.55c-6.12,7.19-14.2,10.78-24.24,10.78
			c-10.07,0-18.14-3.59-24.21-10.76C436.3,396.23,433.27,386.7,433.27,374.82z M484.05,374.82c0-7.71-1.56-13.77-4.68-18.17
			c-3.13-4.4-7.39-6.6-12.79-6.6c-5.4,0-9.65,2.19-12.74,6.57s-4.63,10.44-4.63,18.19c0,7.74,1.54,13.81,4.63,18.19
			s7.34,6.57,12.74,6.57c5.44,0,9.71-2.19,12.82-6.57C482.5,388.63,484.05,382.56,484.05,374.82z"/>
	</g>
</g>
</svg>
