<?xml version="1.0" encoding="utf-8"?>
<!-- Generator: Adobe Illustrator 23.0.5, SVG Export Plug-In . SVG Version: 6.00 Build 0)  -->
<svg version="1.1" id="Layer_1" xmlns="http://www.w3.org/2000/svg" xmlns:xlink="http://www.w3.org/1999/xlink" x="0px" y="0px"
	 viewBox="0 0 500 500" style="enable-background:new 0 0 500 500;" xml:space="preserve">
<style type="text/css">
	.st0{fill:#FFFFFF;}
</style>
<g>
	<path class="st0" d="M250.2,500c-32,0-63.9-7.4-93.3-22.2c-57.1-28.7-97.2-81.2-110.2-144.2c-9.7-47.2-4-94.8,17.6-145.5
		c18.5-43.6,46.5-83.7,85.6-122.5c14.6-14.5,30.2-28.2,45.3-41.4c6.5-5.7,13.2-11.6,19.7-17.4c1.4-1.3,2.9-2.3,4.3-3.3
		c0.6-0.4,1.3-0.9,2-1.4c3.7-2.7,8.6-2.8,12.4-0.3c3.8,2.5,5.7,7.1,4.8,11.5c-0.8,4-1.7,7.9-2.5,11.7c-1.7,8-3.4,15.6-4.7,23.2
		c-5.9,33.1-8.1,60.1-7,84.8c0.9,19.6,8.8,37.8,23.6,54.2c1.2,1.3,1.9,1.8,2.1,1.9c0.3,0,1.2-0.2,3.2-1.3c15.3-8.5,28-21.5,39-39.8
		c6.1-10.3,11.7-21.6,17-32.4c2.3-4.6,4.6-9.4,7-14.1c0.4-0.9,0.9-2,1.6-3.6c0.4-1.1,0.9-2.3,1.5-3.7c1.8-4.2,6.1-6.9,10.7-6.7
		c4.6,0.2,8.6,3.3,10,7.7c1.4,4.4,2.7,8.6,4.1,12.8c2.7,8.4,5.3,16.4,7.6,24.5c12.8,43.7,22.2,88.1,27.9,131.8
		c0.4,2.8,0.9,3,1.7,3.3c0.6,0.2,1.1,0.4,2.9-1.2c16.2-14.6,25.1-32.4,27.1-54.3c0.1-0.7,0.1-1.5,0.2-2.2c0-0.6,0.1-1.1,0.1-1.7
		c0.3-4.6,3.5-8.6,8-9.8c0.3-0.1,0.6-0.2,1-0.3c0.4-0.1,0.8-0.2,1.2-0.4c5.5-1.6,11.4,1.4,13.4,6.8c1.6,4.4,3.4,8.9,5,13.2
		c3.7,9.6,7.5,19.4,10.6,29.6c13.2,43,8.6,91-12.8,135c-21.1,43.3-56.1,78-98.5,97.8l0,0C310.7,493.4,280.4,500,250.2,500z
		 M210.1,40.3c-0.2,0.1-0.3,0.3-0.5,0.4c-14.9,13-30.2,26.5-44.3,40.5c-37,36.8-63.4,74.5-80.8,115.5c-19.7,46.4-25,89.8-16.3,132.5
		c11.6,56.3,47.5,103.3,98.5,128.9c51.2,25.8,110.7,26.5,163.1,2.1l0,0C408.4,423.5,453,331,429.4,253.8c-1-3.4-2.1-6.7-3.3-10
		c-5.8,14.7-15,27.8-27.4,39c-7.6,6.8-16.6,8.8-25.4,5.5c-6.3-2.4-14.2-7.9-15.9-21.1c-5.5-42.6-14.7-85.8-27.1-128.5
		c-1-3.4-2-6.8-3.1-10.2c-5,10.2-10.3,20.7-16.2,30.7c-13,21.8-28.4,37.4-47.2,47.9c-12.3,6.8-23.2,5.1-32.4-5.1
		c-18.3-20.3-28.1-43.2-29.3-68c-1.2-26.4,1.1-54.9,7.3-89.7C209.6,43,209.9,41.6,210.1,40.3z M334.5,470.1L334.5,470.1L334.5,470.1
		z"/>
</g>
</svg>
