<?xml version="1.0" encoding="utf-8"?>
<!-- Generator: Adobe Illustrator 23.0.5, SVG Export Plug-In . SVG Version: 6.00 Build 0)  -->
<svg version="1.1" id="Capa_1" xmlns="http://www.w3.org/2000/svg" xmlns:xlink="http://www.w3.org/1999/xlink" x="0px" y="0px"
	 viewBox="0 0 512 512" style="enable-background:new 0 0 512 512;" xml:space="preserve">
<style type="text/css">
	.st0{fill:#FFFFFF;}
</style>
<g>
	<g>
		<path class="st0" d="M200,0C133.7,0,79.7,57.2,79.7,127.6s54,127.6,120.3,127.6s120.3-57.2,120.3-127.6S266.3,0,200,0z"/>
	</g>
</g>
<g>
	<g>
		<path class="st0" d="M384.6,381.7c-22.5,0-40.8,18.3-40.8,40.8s18.3,40.8,40.8,40.8c22.5,0,40.8-18.3,40.8-40.8
			C425.4,400,407.1,381.7,384.6,381.7z M381.5,410.4c-5.1,0-9.3,4.2-9.3,9.3h-13.5c0.3-12.6,10.4-22.8,22.8-22.8V410.4z"/>
	</g>
</g>
<g>
	<g>
		<path class="st0" d="M508.3,414.1c-13.8-17.1-63-73.1-123.7-73.1S274.7,396.9,261,414.1c-3.9,4.8-3.9,11.8,0,16.9
			c13.8,17.1,63,73.1,123.7,73.1s109.9-55.9,123.7-73.1C512.2,426.1,512.2,419.1,508.3,414.1z M384.6,481.5c-32.6,0-59-26.4-59-59
			s26.4-59,59-59s59,26.4,59,59S417.2,481.5,384.6,481.5z"/>
	</g>
</g>
<path class="st0" d="M384.6,512c-66.7,0-120.7-61.4-135.8-80.2c-4.3-5.6-4.3-13.3,0-18.5c11.1-13.8,43.3-50.7,86-69.2
	c-4.2-3.7-8.5-7.3-13-10.6C289.5,309.3,249.4,295,206,295h-12C86.9,295,0,381.9,0,489v23H400v-1.1C394.9,511.6,389.8,512,384.6,512z
	"/>
</svg>
