<?xml version="1.0" encoding="utf-8"?>
<!-- Generator: Adobe Illustrator 23.0.5, SVG Export Plug-In . SVG Version: 6.00 Build 0)  -->
<svg version="1.1" id="Layer_1" xmlns="http://www.w3.org/2000/svg" xmlns:xlink="http://www.w3.org/1999/xlink" x="0px" y="0px"
	 viewBox="0 0 500 500" style="enable-background:new 0 0 500 500;" xml:space="preserve">
<style type="text/css">
	.st0{fill:#FFFFFF;}
</style>
<path class="st0" d="M450.2,61.1h-66V0.4h-20v60.7H261.3V0.4h-20v60.7H138.4V0.4h-20v60.7H49.8c-19.6,0-35.6,15.9-35.6,35.6V429v11
	v12.5v10.8c0,19.6,16,35.6,35.6,35.6h400.4c19.6,0,35.6-16,35.6-35.6v-10.8V440v-11V96.6C485.8,77,469.8,61.1,450.2,61.1z M34.2,204
	v-21.5v-20V96.6c0-8.6,7-15.6,15.6-15.6h68.6v62.2h20V81.1h102.9v62.2h20V81.1h102.9v62.2h20V81.1h66c8.6,0,15.6,7,15.6,15.6V149
	v13.5v20V204v6.7H34.2V204z M465.8,440v12.5v10.8c0,8.6-7,15.6-15.6,15.6H49.8c-8.6,0-15.6-7-15.6-15.6v-10.8V440v-11V230.7h431.5
	V429L465.8,440L465.8,440z"/>
<path class="st0" d="M289.5,281.5c-30.8-32.4-82.3-33.7-114.7-2.9s-33.7,82.3-2.9,114.7c29.1,30.6,76.5,33.5,109,7.8l18.1,19.1
	l-4.4,4.2l27.4,28.8l19.7-18.8l-27.4-28.8l-4.4,4.2l-18.1-19.1C319.1,359.6,318.6,312.1,289.5,281.5z M182.8,383
	c-25.1-26.4-24.1-68.4,2.4-93.5c26.4-25.1,68.4-24.1,93.5,2.4s24.1,68.4-2.4,93.5C249.9,410.5,207.9,409.4,182.8,383z"/>
</svg>
