<?xml version="1.0" encoding="utf-8"?>
<!-- Generator: Adobe Illustrator 23.0.5, SVG Export Plug-In . SVG Version: 6.00 Build 0)  -->
<svg version="1.1" id="Capa_1" xmlns="http://www.w3.org/2000/svg" xmlns:xlink="http://www.w3.org/1999/xlink" x="0px" y="0px"
	 viewBox="0 0 490 490" style="enable-background:new 0 0 490 490;" xml:space="preserve">
<style type="text/css">
	.st0{fill:#FFFFFF;}
</style>
<path class="st0" d="M436.4,76.6L367.5,0H53.6v490h382.8V76.6z M405.8,459.4H84.2V30.6h269.5v60.8h52L405.8,459.4L405.8,459.4z"/>
<rect x="126" y="60.1" class="st0" width="105.9" height="30.6"/>
<rect x="126" y="107.2" class="st0" width="105.9" height="30.6"/>
<rect x="126" y="154.2" class="st0" width="105.9" height="30.6"/>
<g>
	<g>
		<path class="st0" d="M178.9,209.4c-33.8,0-61.3,29.2-61.3,65s27.5,65,61.3,65s61.3-29.2,61.3-65S212.8,209.4,178.9,209.4z"/>
	</g>
</g>
<g>
	<g>
		<path class="st0" d="M318.4,218.7c-0.1,0-0.3,0-0.4,0c-14.2,0.1-27.4,6.1-37.3,16.9c-9.7,10.6-15,24.5-14.9,39.3
			c0.1,14.8,5.6,28.6,15.5,39c10,10.5,23.1,16.3,37.2,16.3c0.1,0,0.3,0,0.4,0c14.2-0.1,27.4-6.1,37.3-16.9
			c9.7-10.6,15-24.5,14.9-39.3C370.8,243.4,347.2,218.7,318.4,218.7z"/>
	</g>
</g>
<g>
	<g>
		<path class="st0" d="M321,340.8h-5.1c-23.7,0-45.4,9-61.7,23.8c4.1,3.1,8,6.6,11.7,10.2c10.9,10.9,19.4,23.6,25.4,37.7
			c5.4,12.7,8.5,26.1,9.2,39.9H413v-19.6C413,382.1,371.7,340.8,321,340.8z"/>
	</g>
</g>
<g>
	<g>
		<path class="st0" d="M280.7,452.4c-1.9-29.9-17-56.2-39.7-73.1c-16.5-12.3-36.9-19.5-59-19.5h-6.1c-54.6,0-98.9,44.3-98.9,98.9
			v11.7h203.9v-11.7C280.9,456.6,280.8,454.5,280.7,452.4z"/>
	</g>
</g>
</svg>
