<?xml version="1.0" encoding="utf-8"?>
<!-- Generator: Adobe Illustrator 23.0.5, SVG Export Plug-In . SVG Version: 6.00 Build 0)  -->
<svg version="1.1" id="Layer_1" xmlns="http://www.w3.org/2000/svg" xmlns:xlink="http://www.w3.org/1999/xlink" x="0px" y="0px"
	 viewBox="0 0 500 500" style="enable-background:new 0 0 500 500;" xml:space="preserve">
<style type="text/css">
	.st0{fill:#FFFFFF;}
</style>
<g>
	<path class="st0" d="M104.1,425.9c-2.6,0-5.1-1-7.1-2.9c-46.2-46.2-71.7-107.7-71.7-173c0-65.4,25.5-126.8,71.7-173
		c3.9-3.9,10.2-3.9,14.1,0c3.9,3.9,3.9,10.2,0,14.1C68.7,133.6,45.3,190,45.3,250s23.4,116.4,65.8,158.9c3.9,3.9,3.9,10.2,0,14.1
		C109.2,425,106.6,425.9,104.1,425.9z"/>
</g>
<g>
	<path class="st0" d="M395.9,425.9c-2.6,0-5.1-1-7.1-2.9c-3.9-3.9-3.9-10.2,0-14.1c42.4-42.4,65.8-98.9,65.8-158.9
		s-23.4-116.4-65.8-158.9c-3.9-3.9-3.9-10.2,0-14.1c3.9-3.9,10.2-3.9,14.1,0c46.2,46.2,71.7,107.7,71.7,173S449.2,376.8,403,423
		C401.1,425,398.5,425.9,395.9,425.9z"/>
</g>
<g>
	<path class="st0" d="M170.3,359.7c-2.6,0-5.1-1-7.1-2.9C134.7,328.3,119,290.3,119,250s15.7-78.3,44.2-106.8
		c3.9-3.9,10.2-3.9,14.1,0s3.9,10.2,0,14.1C152.6,182.1,139,215,139,250s13.6,67.9,38.4,92.6c3.9,3.9,3.9,10.2,0,14.1
		C175.4,358.7,172.9,359.7,170.3,359.7z"/>
</g>
<g>
	<path class="st0" d="M329.7,359.7c-2.6,0-5.1-1-7.1-2.9c-3.9-3.9-3.9-10.2,0-14.1C347.4,317.9,361,285,361,250
		c0-35-13.6-67.9-38.4-92.6c-3.9-3.9-3.9-10.2,0-14.1s10.2-3.9,14.1,0C365.3,171.7,381,209.7,381,250s-15.7,78.3-44.2,106.8
		C334.8,358.7,332.3,359.7,329.7,359.7z"/>
</g>
<circle class="st0" cx="250" cy="244.3" r="38"/>
</svg>
