<?xml version="1.0" encoding="utf-8"?>
<!-- Generator: Adobe Illustrator 23.0.5, SVG Export Plug-In . SVG Version: 6.00 Build 0)  -->
<svg version="1.1" id="Layer_1" xmlns="http://www.w3.org/2000/svg" xmlns:xlink="http://www.w3.org/1999/xlink" x="0px" y="0px"
	 viewBox="0 0 500 500" style="enable-background:new 0 0 500 500;" xml:space="preserve">
<style type="text/css">
	.st0{fill:#FFFFFF;}
</style>
<g>
	<path class="st0" d="M104.06,425.94c-2.56,0-5.12-0.98-7.07-2.93C50.78,376.8,25.32,315.36,25.32,250
		c0-65.35,25.45-126.8,71.66-173.01c3.91-3.91,10.24-3.91,14.14,0c3.9,3.9,3.9,10.24,0,14.14C68.7,133.57,45.32,189.99,45.32,250
		s23.37,116.43,65.81,158.87c3.9,3.91,3.9,10.24,0,14.14C109.18,424.96,106.62,425.94,104.06,425.94z"/>
</g>
<g>
	<path class="st0" d="M395.94,425.94c-2.56,0-5.12-0.98-7.07-2.93c-3.91-3.91-3.91-10.24,0-14.14
		c42.44-42.44,65.81-98.86,65.81-158.87S431.3,133.57,388.87,91.13c-3.91-3.91-3.91-10.24,0-14.14c3.91-3.91,10.24-3.91,14.14,0
		c46.21,46.21,71.66,107.66,71.66,173.01s-25.45,126.8-71.66,173.01C401.06,424.96,398.5,425.94,395.94,425.94z"/>
</g>
<g>
	<path class="st0" d="M170.29,359.71c-2.56,0-5.12-0.98-7.07-2.93c-28.52-28.52-44.23-66.44-44.23-106.78s15.71-78.26,44.23-106.78
		c3.91-3.91,10.24-3.91,14.14,0s3.91,10.24,0,14.14c-24.74,24.75-38.37,57.65-38.37,92.64s13.63,67.89,38.37,92.64
		c3.9,3.91,3.9,10.24,0,14.14C175.41,358.73,172.85,359.71,170.29,359.71z"/>
</g>
<g>
	<path class="st0" d="M329.71,359.71c-2.56,0-5.12-0.98-7.07-2.93c-3.91-3.91-3.91-10.24,0-14.14
		C347.39,317.9,361.01,285,361.01,250c0-34.99-13.63-67.89-38.37-92.64c-3.91-3.91-3.91-10.24,0-14.14s10.24-3.9,14.14,0
		c28.52,28.52,44.23,66.44,44.23,106.78s-15.71,78.26-44.23,106.78C334.83,358.73,332.27,359.71,329.71,359.71z"/>
</g>
<polygon class="st0" points="255.68,328.69 268.41,244.26 281.14,159.83 228.63,227.16 176.12,294.48 235.06,267.01 "/>
</svg>
