<?xml version="1.0" encoding="utf-8"?>
<!-- Generator: Adobe Illustrator 23.0.5, SVG Export Plug-In . SVG Version: 6.00 Build 0)  -->
<svg version="1.1" id="Layer_1" xmlns="http://www.w3.org/2000/svg" xmlns:xlink="http://www.w3.org/1999/xlink" x="0px" y="0px"
	 viewBox="0 0 500 500" style="enable-background:new 0 0 500 500;" xml:space="preserve">
<style type="text/css">
	.st0{fill:#282727;}
</style>
<g>
	
		<rect x="348.6" y="23.5" transform="matrix(-0.6667 -0.7453 0.7453 -0.6667 527.9589 514.8323)" class="st0" width="61" height="231.9"/>
	<polygon class="st0" points="258.2,206.6 298.9,252 239.4,264.4 	"/>
	<path class="st0" d="M262,187.5L420.2,45.9v-8.2c0-20.7-16.7-37.4-37.4-37.4H94.1c-20.7,0-37.4,16.7-37.4,37.4v424.5
		c0,20.7,16.7,37.4,37.4,37.4h288.8c20.7,0,37.4-16.7,37.4-37.4V158.9l-99.4,88.9l-2.6,2.4l-17.1,15.3l-75.5,11.1l19.4-73.8
		L262,187.5z M363.3,420.1H113.7v-34.5h249.6V420.1z M363.3,321.4v34.5H113.7v-34.5H363.3z"/>
</g>
</svg>
