<?xml version="1.0" encoding="utf-8"?>
<!-- Generator: Adobe Illustrator 23.0.5, SVG Export Plug-In . SVG Version: 6.00 Build 0)  -->
<svg version="1.1" id="Capa_1" xmlns="http://www.w3.org/2000/svg" xmlns:xlink="http://www.w3.org/1999/xlink" x="0px" y="0px"
	 viewBox="0 0 490 490" style="enable-background:new 0 0 490 490;" xml:space="preserve">
<style type="text/css">
	.st0{fill:#FFFFFF;}
</style>
<path class="st0" d="M436.4,76.6L367.5,0H53.6v490h382.8V76.6z M405.8,459.4H84.2V30.6h269.5v60.8h52L405.8,459.4L405.8,459.4z"/>
<rect x="269" y="138.1" class="st0" width="105.9" height="30.6"/>
<rect x="269" y="210.2" class="st0" width="105.9" height="30.6"/>
<rect x="269" y="282.2" class="st0" width="105.9" height="30.6"/>
<ellipse class="st0" cx="174.6" cy="222.6" rx="76.1" ry="80.6"/>
<path class="st0" d="M300.8,443.4c-2.3-37.1-21.1-69.7-49.1-90.6c-20.4-15.2-45.7-24.2-73.1-24.2h-7.6c-54,0-99.8,34.9-116.2,83.4
	v50.6H301v-11.4C301,448.5,300.9,445.9,300.8,443.4z"/>
</svg>
