<?xml version="1.0" encoding="utf-8"?>
<!-- Generator: Adobe Illustrator 23.0.5, SVG Export Plug-In . SVG Version: 6.00 Build 0)  -->
<svg version="1.1" id="Layer_1" xmlns="http://www.w3.org/2000/svg" xmlns:xlink="http://www.w3.org/1999/xlink" x="0px" y="0px"
	 viewBox="0 0 500 500" style="enable-background:new 0 0 500 500;" xml:space="preserve">
<style type="text/css">
	.st0{fill:#1FB5FC;}
</style>
<g>
	<g>
		<g>
			<path class="st0" d="M42.51,295.09c0-5.49-7.63-9.94-17.05-9.94c-9.42,0-17.05,4.45-17.05,9.94c0,4.28,4.63,7.92,11.12,9.33
				l0,5.77c0,0.43,0.3,0.84,0.73,0.91c0.55,0.09,1.02-0.33,1.02-0.86v-4.5c0-0.55,0.49-0.96,1.05-0.86
				c0.43,0.08,0.73,0.49,0.73,0.93l0,8.83c0,0.43,0.3,0.84,0.73,0.91c0.55,0.09,1.02-0.33,1.02-0.86l0-8.82
				c0-0.45,0.37-0.82,0.82-0.83c0,0,0,0,0,0c0.01,0,0.06,0,0.12,0c0.46-0.01,0.84,0.37,0.84,0.83l0,3.22c0,0.43,0.3,0.84,0.73,0.91
				c0.55,0.09,1.02-0.33,1.02-0.86v-3.45c0-0.44,0.33-0.82,0.77-0.87l0.03,0c0.52-0.07,0.98,0.34,0.98,0.86l0,10.08
				c0,0.43,0.3,0.84,0.73,0.91c0.55,0.09,1.02-0.33,1.02-0.86v-11.48C38.09,302.84,42.51,299.27,42.51,295.09z"/>
		</g>
		<g>
			<g>
				<path class="st0" d="M58.48,300.3c-1.53,0-2.78-1.24-2.78-2.78s1.24-2.78,2.78-2.78c29.18,0,52.93-23.74,52.93-52.93
					s-23.74-52.93-52.93-52.93S5.56,212.63,5.56,241.82c0,9.78,2.69,19.33,7.77,27.62c0.8,1.31,0.39,3.02-0.92,3.82
					c-1.31,0.8-3.02,0.39-3.82-0.92C2.97,263.18,0,252.62,0,241.82c0-32.25,26.23-58.48,58.48-58.48
					c32.25,0,58.48,26.23,58.48,58.48S90.73,300.3,58.48,300.3z"/>
			</g>
		</g>
		<g>
			<path class="st0" d="M59.19,196.63c-25.1,0-45.46,20.35-45.46,45.46c0,21.64,15.12,39.73,35.37,44.32
				c2.21-2.59,3.76-5.5,3.54-8.2c-0.27-3.3-2.77-5.27-5.67-7.55c-1.9-1.5-3.87-3.05-5.34-5.11c-2.33-3.29-4.02-8.57,1.2-15.08
				c2.3-2.87,5.76-6.31,9.77-7.52c-1.03-1.82-2.44-3.43-4.16-4.69l-0.23-0.17c-0.08-0.05-0.14-0.12-0.22-0.17l26.98,11.21
				l-5.02,4.98l-15.63-6.33c-0.04-0.22-0.08-0.44-0.13-0.66c-2.4,0.59-5.17,2.73-7.9,6.13c-3.78,4.71-2.41,7.81-1.05,9.73
				c1.1,1.54,2.73,2.83,4.47,4.2c3.25,2.56,7.21,5.44,7.35,10.68c0.24,8.66-6.85,13.45-8.85,16.35c1.69,0.19,9.23-6.65,10.97-6.65
				c25.1,0,45.46-20.35,45.46-45.46C104.64,216.98,84.29,196.63,59.19,196.63z M66.27,257.74c-3.98,3.95-10.77,1.51-11.32-4.07
				l-0.36-3.58l13.77,5.58L66.27,257.74z M76.74,247.37l-0.19,0.19l-28.07-11.66c-2.77-1.15-4.32-4.15-3.57-7.05
				c0.01-0.02,0.01-0.04,0.02-0.06v0c0-2.47,2.48-4.17,4.79-3.28l24.41,9.41C79.26,236.89,80.64,243.5,76.74,247.37z"/>
		</g>
	</g>
	<g>
		<path class="st0" d="M157.01,258.79l10.72-2.31c0.7,3.85,1.9,6.59,3.61,8.21c1.71,1.63,4.27,2.44,7.69,2.44
			c2.55,0,4.52-0.45,5.9-1.34c1.39-0.89,2.08-2.14,2.08-3.75c0-1.81-0.76-3.27-2.27-4.4c-1.52-1.13-4.45-2.44-8.81-3.94
			c-5.97-1.97-10.23-4.2-12.78-6.68c-2.53-2.45-3.79-5.58-3.79-9.39c0-4.33,1.64-7.85,4.91-10.56c3.27-2.71,7.49-4.06,12.64-4.06
			c5.08,0,9.42,1.4,13.03,4.21c3.61,2.8,5.83,6.48,6.64,11.03l-10.65,2.28c-0.7-2.62-1.79-4.56-3.27-5.81
			c-1.48-1.25-3.4-1.88-5.76-1.88c-2.05,0-3.68,0.43-4.91,1.28c-1.23,0.85-1.84,2-1.84,3.45c0,1.33,0.69,2.46,2.07,3.4
			c1.39,0.94,4,2.06,7.85,3.36c6.47,2.21,11.06,4.67,13.76,7.36c2.77,2.77,4.15,6.22,4.15,10.36c0,4.45-1.77,8.06-5.31,10.81
			c-3.54,2.76-8.14,4.13-13.79,4.13c-6.19,0-11.15-1.55-14.89-4.66C160.25,269.22,157.92,264.71,157.01,258.79z"/>
		<path class="st0" d="M204.45,224.09h10.94v20.29h16.79v-20.29h10.94v51.78h-10.94v-21.52h-16.79v21.52h-10.94V224.09z"/>
		<path class="st0" d="M250.41,249.98c0-8.14,2.08-14.66,6.24-19.59c4.16-4.92,9.7-7.38,16.61-7.38c6.88,0,12.43,2.46,16.63,7.38
			c4.2,4.92,6.3,11.45,6.3,19.59c0,8.14-2.1,14.67-6.3,19.6c-4.2,4.94-9.74,7.4-16.63,7.4c-6.91,0-12.44-2.46-16.61-7.39
			C252.49,264.68,250.41,258.14,250.41,249.98z M285.25,249.98c0-5.29-1.07-9.45-3.21-12.48c-2.14-3.02-5.07-4.53-8.78-4.53
			c-3.71,0-6.62,1.5-8.74,4.51s-3.18,7.17-3.18,12.49c0,5.32,1.06,9.48,3.18,12.49s5.03,4.51,8.74,4.51c3.73,0,6.66-1.5,8.79-4.51
			C284.18,259.46,285.25,255.3,285.25,249.98z"/>
		<path class="st0" d="M298.32,224.09h11.19l6.93,34.12h0.14l9.46-34.12h10.07l9.46,34.12h0.14l6.97-34.12h11.15l-10.94,51.78
			h-11.63l-10.11-35.49h-0.14l-10.15,35.49h-11.52L298.32,224.09z"/>
		<path class="st0" d="M365.98,249.98c0-8.14,2.08-14.66,6.24-19.59c4.16-4.92,9.7-7.38,16.61-7.38c5.42,0,10,1.64,13.76,4.93
			c3.76,3.28,5.97,7.55,6.64,12.8l-10.62,1.7c-0.55-2.96-1.7-5.28-3.43-6.95s-3.85-2.51-6.36-2.51c-3.73,0-6.65,1.5-8.76,4.51
			c-2.11,3.01-3.16,7.17-3.16,12.49c0,5.32,1.07,9.48,3.19,12.49c2.13,3.01,5.06,4.51,8.79,4.51c3.06,0,5.44-0.84,7.15-2.53
			c1.71-1.68,2.59-4.07,2.63-7.15h-9.24v-8.81h19.57v7.04c0,6.43-1.85,11.61-5.54,15.54c-3.7,3.94-8.57,5.9-14.64,5.9
			c-6.91,0-12.44-2.46-16.61-7.37C368.06,264.71,365.98,258.16,365.98,249.98z"/>
		<path class="st0" d="M416.45,224.09h33.36v10.07h-22.42v10.51h20.44v9.6h-20.44v11.52h22.49v10.07h-33.43V224.09z"/>
		<path class="st0" d="M454.22,249.98c0-8.14,2.08-14.66,6.24-19.59c4.16-4.92,9.7-7.38,16.61-7.38c6.88,0,12.43,2.46,16.63,7.38
			c4.2,4.92,6.3,11.45,6.3,19.59c0,8.14-2.1,14.67-6.3,19.6c-4.2,4.94-9.74,7.4-16.63,7.4c-6.91,0-12.44-2.46-16.61-7.39
			C456.3,264.68,454.22,258.14,454.22,249.98z M489.06,249.98c0-5.29-1.07-9.45-3.21-12.48c-2.14-3.02-5.07-4.53-8.78-4.53
			c-3.71,0-6.62,1.5-8.74,4.51s-3.18,7.17-3.18,12.49c0,5.32,1.06,9.48,3.18,12.49s5.03,4.51,8.74,4.51c3.73,0,6.66-1.5,8.79-4.51
			C488,259.46,489.06,255.3,489.06,249.98z"/>
	</g>
</g>
</svg>
