<?xml version="1.0" encoding="utf-8"?>
<!-- Generator: Adobe Illustrator 23.0.5, SVG Export Plug-In . SVG Version: 6.00 Build 0)  -->
<svg version="1.1" id="Layer_1" xmlns="http://www.w3.org/2000/svg" xmlns:xlink="http://www.w3.org/1999/xlink" x="0px" y="0px"
	 viewBox="0 0 128 128" style="enable-background:new 0 0 128 128;" xml:space="preserve">
<style type="text/css">
	.st0{fill:#FFFFFF;}
	.st1{fill:#2B2B2B;}
	.st2{opacity:0.06;}
	.st3{clip-path:url(#SVGID_2_);}
	.st4{fill:none;stroke:#AAAAAA;stroke-miterlimit:10;}
	.st5{fill:url(#SVGID_3_);}
	.st6{fill:none;stroke:#FFFFFF;stroke-miterlimit:10;}
	.st7{fill:#5E5F5E;}
	.st8{fill:#DCDCDC;}
	.st9{fill:url(#SVGID_4_);}
	.st10{fill:url(#SVGID_5_);}
	.st11{fill:none;stroke:url(#SVGID_6_);stroke-width:5;stroke-miterlimit:10;}
	.st12{fill:url(#SVGID_7_);}
	.st13{fill:url(#SVGID_8_);}
	.st14{fill:url(#SVGID_9_);}
	.st15{fill:url(#SVGID_10_);}
	.st16{fill:url(#SVGID_11_);}
	.st17{fill:url(#SVGID_12_);}
	.st18{fill:url(#SVGID_13_);}
	.st19{fill:url(#SVGID_14_);}
	.st20{fill:url(#SVGID_15_);}
	.st21{fill:url(#SVGID_16_);}
	.st22{fill:url(#SVGID_17_);}
	.st23{fill:url(#SVGID_18_);}
	.st24{fill:url(#SVGID_19_);}
	.st25{fill:url(#SVGID_20_);}
	.st26{fill:url(#SVGID_21_);}
	.st27{fill:url(#SVGID_22_);}
	.st28{fill:url(#SVGID_23_);}
</style>
<g>
	<linearGradient id="SVGID_2_" gradientUnits="userSpaceOnUse" x1="0" y1="64" x2="128" y2="64">
		<stop  offset="0" style="stop-color:#841618"/>
		<stop  offset="0.1687" style="stop-color:#A11A1E"/>
		<stop  offset="0.3831" style="stop-color:#C01E25"/>
		<stop  offset="0.5028" style="stop-color:#CC2027"/>
		<stop  offset="0.5835" style="stop-color:#C51F25"/>
		<stop  offset="0.7018" style="stop-color:#B11B21"/>
		<stop  offset="0.8434" style="stop-color:#911419"/>
		<stop  offset="1" style="stop-color:#650B0F"/>
	</linearGradient>
	<circle style="fill:url(#SVGID_2_);" cx="64" cy="64" r="64"/>
	<g>
		<g>
			<path class="st0" d="M93.73,74.29l0.38-0.38c7.9-7.83,5.1-21.2-5.28-25.21L39.44,29.66c-4.66-1.8-9.68,1.64-9.68,6.64v0
				c-0.01,0.04-0.02,0.08-0.03,0.12c-1.53,5.86,1.63,11.94,7.22,14.27L93.73,74.29z"/>
			<path class="st0" d="M90.54,77.46L35.94,54.77c0.15,0.12,0.29,0.24,0.44,0.35l0.46,0.34c6.35,4.64,10.6,11.57,11.91,19.26
				l31.62,12.81L90.54,77.46z"/>
			<path class="st0" d="M49.31,79.42l0.72,7.24c1.13,11.29,14.85,16.22,22.91,8.24l4.23-4.19L49.31,79.42z"/>
		</g>
	</g>
</g>
</svg>
